<mxfile host="app.diagrams.net" modified="2023-12-12T01:59:27.318Z" agent="Mozilla/5.0 (X11; Ubuntu; Linux x86_64; rv:120.0) Gecko/20100101 Firefox/120.0" etag="MzVuYEMUSfDD_CqS_YhJ" version="21.2.1" type="device">
  <diagram name="PÃ¡gina-1" id="oRof4bi7FMiIdzMMN4kg">
    <mxGraphModel dx="1434" dy="664" grid="1" gridSize="10" guides="1" tooltips="1" connect="1" arrows="1" fold="1" page="1" pageScale="1" pageWidth="827" pageHeight="1169" math="0" shadow="0">
      <root>
        <mxCell id="0" />
        <mxCell id="1" parent="0" />
        <mxCell id="PckgVP8NDZXa9hlAkmpA-39" value="" style="rounded=0;whiteSpace=wrap;html=1;strokeColor=#0A0A0A;" vertex="1" parent="1">
          <mxGeometry x="30" y="40" width="740" height="360" as="geometry" />
        </mxCell>
        <mxCell id="PckgVP8NDZXa9hlAkmpA-1" value="VPC" style="points=[[0,0],[0.25,0],[0.5,0],[0.75,0],[1,0],[1,0.25],[1,0.5],[1,0.75],[1,1],[0.75,1],[0.5,1],[0.25,1],[0,1],[0,0.75],[0,0.5],[0,0.25]];outlineConnect=0;gradientColor=none;html=1;whiteSpace=wrap;fontSize=12;fontStyle=0;container=1;pointerEvents=0;collapsible=0;recursiveResize=0;shape=mxgraph.aws4.group;grIcon=mxgraph.aws4.group_vpc;strokeColor=#248814;fillColor=none;verticalAlign=top;align=left;spacingLeft=30;fontColor=#AAB7B8;dashed=0;" vertex="1" parent="1">
          <mxGeometry x="70" y="160" width="370" height="190" as="geometry" />
        </mxCell>
        <mxCell id="PckgVP8NDZXa9hlAkmpA-6" value="" style="group" vertex="1" connectable="0" parent="PckgVP8NDZXa9hlAkmpA-1">
          <mxGeometry x="72.5" y="30" width="225" height="150" as="geometry" />
        </mxCell>
        <mxCell id="PckgVP8NDZXa9hlAkmpA-5" value="" style="rounded=0;whiteSpace=wrap;html=1;strokeColor=#FF8000;strokeWidth=2;" vertex="1" parent="PckgVP8NDZXa9hlAkmpA-6">
          <mxGeometry width="225" height="150" as="geometry" />
        </mxCell>
        <mxCell id="PckgVP8NDZXa9hlAkmpA-2" value="" style="sketch=0;points=[[0,0,0],[0.25,0,0],[0.5,0,0],[0.75,0,0],[1,0,0],[0,1,0],[0.25,1,0],[0.5,1,0],[0.75,1,0],[1,1,0],[0,0.25,0],[0,0.5,0],[0,0.75,0],[1,0.25,0],[1,0.5,0],[1,0.75,0]];outlineConnect=0;fontColor=#232F3E;gradientColor=#F78E04;gradientDirection=north;fillColor=#D05C17;strokeColor=#ffffff;dashed=0;verticalLabelPosition=bottom;verticalAlign=top;align=center;html=1;fontSize=12;fontStyle=0;aspect=fixed;shape=mxgraph.aws4.resourceIcon;resIcon=mxgraph.aws4.ecs;" vertex="1" parent="PckgVP8NDZXa9hlAkmpA-6">
          <mxGeometry width="45" height="45" as="geometry" />
        </mxCell>
        <mxCell id="PckgVP8NDZXa9hlAkmpA-10" value="" style="sketch=0;outlineConnect=0;fontColor=#232F3E;gradientColor=none;fillColor=#D45B07;strokeColor=none;dashed=0;verticalLabelPosition=bottom;verticalAlign=top;align=center;html=1;fontSize=12;fontStyle=0;aspect=fixed;pointerEvents=1;shape=mxgraph.aws4.container_1;" vertex="1" parent="PckgVP8NDZXa9hlAkmpA-6">
          <mxGeometry x="77.49875" y="57.842307692307685" width="69.6825" height="45" as="geometry" />
        </mxCell>
        <mxCell id="PckgVP8NDZXa9hlAkmpA-11" value="&lt;b&gt;ECS Task&lt;/b&gt;" style="text;strokeColor=none;align=center;fillColor=none;html=1;verticalAlign=middle;whiteSpace=wrap;rounded=0;" vertex="1" parent="PckgVP8NDZXa9hlAkmpA-6">
          <mxGeometry x="79.84125" y="103.84615384615384" width="67.5" height="34.61538461538461" as="geometry" />
        </mxCell>
        <mxCell id="PckgVP8NDZXa9hlAkmpA-46" value="&lt;font style=&quot;font-size: 10px;&quot;&gt;&lt;b&gt;AWS ECS&lt;br&gt;&lt;/b&gt;&lt;/font&gt;" style="text;strokeColor=none;align=center;fillColor=none;html=1;verticalAlign=middle;whiteSpace=wrap;rounded=0;" vertex="1" parent="PckgVP8NDZXa9hlAkmpA-6">
          <mxGeometry y="40" width="50" height="30" as="geometry" />
        </mxCell>
        <mxCell id="PckgVP8NDZXa9hlAkmpA-19" style="edgeStyle=orthogonalEdgeStyle;rounded=0;orthogonalLoop=1;jettySize=auto;html=1;entryX=0.959;entryY=0.384;entryDx=0;entryDy=0;entryPerimeter=0;" edge="1" parent="1" source="PckgVP8NDZXa9hlAkmpA-13" target="PckgVP8NDZXa9hlAkmpA-10">
          <mxGeometry relative="1" as="geometry" />
        </mxCell>
        <mxCell id="PckgVP8NDZXa9hlAkmpA-13" value="" style="sketch=0;outlineConnect=0;fontColor=#232F3E;gradientColor=none;fillColor=#D45B07;strokeColor=none;dashed=0;verticalLabelPosition=bottom;verticalAlign=top;align=center;html=1;fontSize=12;fontStyle=0;aspect=fixed;pointerEvents=1;shape=mxgraph.aws4.ecs_task;" vertex="1" parent="1">
          <mxGeometry x="500" y="230" width="53.96" height="70" as="geometry" />
        </mxCell>
        <mxCell id="PckgVP8NDZXa9hlAkmpA-14" value="&lt;b&gt;Task Definition&lt;/b&gt;" style="text;strokeColor=none;align=center;fillColor=none;html=1;verticalAlign=middle;whiteSpace=wrap;rounded=0;" vertex="1" parent="1">
          <mxGeometry x="480.47" y="300" width="93.02" height="30" as="geometry" />
        </mxCell>
        <mxCell id="PckgVP8NDZXa9hlAkmpA-15" value="" style="sketch=0;outlineConnect=0;fontColor=#232F3E;gradientColor=none;fillColor=#B0084D;strokeColor=none;dashed=0;verticalLabelPosition=bottom;verticalAlign=top;align=center;html=1;fontSize=12;fontStyle=0;aspect=fixed;pointerEvents=1;shape=mxgraph.aws4.parameter_store;" vertex="1" parent="1">
          <mxGeometry x="660" y="226" width="75" height="78" as="geometry" />
        </mxCell>
        <mxCell id="PckgVP8NDZXa9hlAkmpA-16" value="&lt;b&gt;Parameter Store&lt;br&gt;&lt;/b&gt;" style="text;strokeColor=none;align=center;fillColor=none;html=1;verticalAlign=middle;whiteSpace=wrap;rounded=0;" vertex="1" parent="1">
          <mxGeometry x="641.98" y="304" width="93.02" height="30" as="geometry" />
        </mxCell>
        <mxCell id="PckgVP8NDZXa9hlAkmpA-17" value="" style="endArrow=classic;html=1;rounded=0;" edge="1" parent="1" source="PckgVP8NDZXa9hlAkmpA-15" target="PckgVP8NDZXa9hlAkmpA-13">
          <mxGeometry width="50" height="50" relative="1" as="geometry">
            <mxPoint x="670" y="260" as="sourcePoint" />
            <mxPoint x="560" y="270" as="targetPoint" />
          </mxGeometry>
        </mxCell>
        <mxCell id="PckgVP8NDZXa9hlAkmpA-35" value="" style="endArrow=classic;html=1;rounded=0;" edge="1" parent="1" target="PckgVP8NDZXa9hlAkmpA-10">
          <mxGeometry relative="1" as="geometry">
            <mxPoint x="697" y="220" as="sourcePoint" />
            <mxPoint x="261" y="116" as="targetPoint" />
            <Array as="points">
              <mxPoint x="700" y="80" />
              <mxPoint x="255" y="80" />
            </Array>
          </mxGeometry>
        </mxCell>
        <mxCell id="PckgVP8NDZXa9hlAkmpA-36" value="Parameter Value" style="edgeLabel;resizable=0;html=1;align=center;verticalAlign=middle;" connectable="0" vertex="1" parent="PckgVP8NDZXa9hlAkmpA-35">
          <mxGeometry relative="1" as="geometry" />
        </mxCell>
      </root>
    </mxGraphModel>
  </diagram>
</mxfile>
